<?xml version="1.0" encoding="UTF-8"?>
<svg id="Layer_1" xmlns="http://www.w3.org/2000/svg" version="1.1" viewBox="0 0 800 800">
  <!-- Generator: Adobe Illustrator 29.0.1, SVG Export Plug-In . SVG Version: 2.1.0 Build 192)  -->
  <defs>
    <style>
      .st0 {
        fill-rule: evenodd;
      }

      .st0, .st1 {
        fill: #fff;
      }
    </style>
  </defs>
  <path class="st0" d="M83.3,633.3c-27.6,0-50-22.4-50-50V216.7c0-27.6,22.4-50,50-50h183.3c166.7,0,166.7,216.7,66.7,216.7,100,0,133.3,250-66.7,250H83.3ZM150,366.7c-9.2,0-16.7-7.5-16.7-16.7v-100c0-9.2,7.5-16.7,16.7-16.7h83.3s66.7,0,66.7,66.7-66.7,66.7-66.7,66.7h-83.3ZM150,433.3c-9.2,0-16.7,7.5-16.7,16.7v100c0,9.2,7.5,16.7,16.7,16.7h116.7s50,0,50-66.7-50-66.7-50-66.7h-116.7Z"/>
  <path class="st0" d="M716.6,466.8c27.6,0,50.7-22.8,45.1-49.8-41.5-199.3-331.3-180.9-328.4,49.8,2.2,175.8,247.8,232.1,320.1,72.9,11.5-25.3-14.3-39.7-35.6-39.7s-33.5,17.4-45.6,32c-34.7,41.8-140.2,38.8-154.1-48.1-1.5-9.2,6.2-17,15.5-17h183ZM527.3,400c-4.9,0-8.1-5.1-5.5-9.3,35.3-55.9,120.2-55.3,156.2,0,2.7,4.2-.5,9.4-5.4,9.4h-145.3Z"/>
  <path class="st1" d="M533.3,200c-18.4,0-33.3,14.9-33.3,33.3s14.9,33.3,33.3,33.3h133.3c18.4,0,33.3-14.9,33.3-33.3s-14.9-33.3-33.3-33.3h-133.3Z"/>
</svg>