<?xml version="1.0" encoding="UTF-8"?>
<svg id="Camada_1" xmlns="http://www.w3.org/2000/svg" version="1.1" viewBox="0 0 800 800">
  <!-- Generator: Adobe Illustrator 29.0.1, SVG Export Plug-In . SVG Version: 2.1.0 Build 192)  -->
  <defs>
    <style>
      .st0 {
        fill: #fff;
      }
    </style>
  </defs>
  <path class="st0" d="M521.5,252.6c-15.6,0-27.3,11.7-27.3,27.3s11.7,27.3,27.3,27.3,27.3-11.7,27.3-27.3-11.7-27.3-27.3-27.3Z"/>
  <path class="st0" d="M398.5,287.7c-64.4,0-115.2,52.7-115.2,115.2s52.7,115.2,115.2,115.2,115.2-52.7,115.2-115.2-50.8-115.2-115.2-115.2ZM398.5,477.1c-41,0-74.2-33.2-74.2-74.2s33.2-74.2,74.2-74.2,74.2,33.2,74.2,74.2-33.2,74.2-74.2,74.2Z"/>
  <path class="st0" d="M492.2,166.7h-185.5c-80,0-142.5,62.5-142.5,140.6v185.5c0,78.1,62.5,140.6,140.6,140.6h185.5c78.1,0,140.6-62.5,140.6-140.6v-185.5c2-78.1-60.5-140.6-138.6-140.6ZM587.9,494.7c0,52.7-43,97.6-97.6,97.6h-185.5c-52.7,0-97.6-43-97.6-97.6v-185.5c0-52.7,43-97.6,97.6-97.6h185.5c52.7,0,97.6,43,97.6,97.6v185.5Z"/>
</svg>