<?xml version="1.0" encoding="UTF-8"?>
<svg id="Capa_1" xmlns="http://www.w3.org/2000/svg" version="1.1" viewBox="0 0 800 800">
  <!-- Generator: Adobe Illustrator 29.0.1, SVG Export Plug-In . SVG Version: 2.1.0 Build 192)  -->
  <defs>
    <style>
      .st0 {
        fill: #fff;
      }
    </style>
  </defs>
  <path class="st0" d="M161.2,633.3h66.4c9.1,0,16.6-7.4,16.6-16.6v-290.3c0-9.1-7.4-16.6-16.6-16.6h-66.4c-9.1,0-16.6,7.4-16.6,16.6v290.3c0,9.1,7.4,16.6,16.6,16.6Z"/>
  <path class="st0" d="M161.2,258.8h66.4c9.1,0,16.6-7.4,16.6-16.6v-58.9c0-9.1-7.4-16.6-16.6-16.6h-66.4c-9.2,0-16.6,7.4-16.6,16.6v59c0,9.1,7.4,16.6,16.6,16.6h0Z"/>
  <path class="st0" d="M630.4,343.6c-9.3-12.3-23.1-22.4-41.3-30.3-18.2-7.9-38.2-11.9-60.3-11.9-44.6,0-82.4,17-113.4,51.1-6.2,6.8-10.7,5.3-10.7-3.9v-22.1c0-9.1-7.4-16.6-16.6-16.6h-59.3c-9.1,0-16.6,7.4-16.6,16.6v290.3c0,9.1,7.4,16.6,16.6,16.6h66.4c9.1,0,16.6-7.4,16.6-16.6v-100.9c0-42.1,2.6-70.9,7.6-86.4,5.1-15.6,14.5-28.1,28.2-37.5,13.7-9.4,29.2-14.2,46.4-14.2s25,3.3,34.5,9.9c9.6,6.6,16.5,15.9,20.8,27.8s6.4,38.2,6.4,78.9v122.5c0,9.1,7.4,16.6,16.6,16.6h66.4c9.1,0,16.6-7.4,16.6-16.6v-164.3c0-29.1-1.9-51.4-5.5-67-3.6-15.6-10.2-29.6-19.5-41.8h0Z"/>
</svg>